<?xml version="1.0" standalone="no"?>
<!DOCTYPE svg PUBLIC "-//W3C//DTD SVG 20010904//EN"
 "http://www.w3.org/TR/2001/REC-SVG-20010904/DTD/svg10.dtd">
<svg version="1.0" xmlns="http://www.w3.org/2000/svg"
 width="256.000000pt" height="256.000000pt" viewBox="0 0 256.000000 256.000000"
 preserveAspectRatio="xMidYMid meet">

<g transform="translate(0.000000,256.000000) scale(0.100000,-0.100000)"
fill="#000000" stroke="none">
<path d="M880 2440 l0 -40 -40 0 -40 0 0 -40 0 -40 -40 0 -40 0 0 -40 0 -40
-40 0 -40 0 0 -40 0 -40 -40 0 -40 0 0 -320 0 -320 -40 0 -40 0 0 -120 0 -120
40 0 40 0 0 -120 0 -120 40 0 40 0 0 -40 0 -40 40 0 40 0 0 -120 0 -120 -40 0
-40 0 0 40 0 40 -120 0 -120 0 0 -40 0 -40 -40 0 -40 0 0 -40 0 -40 40 0 40 0
0 -80 0 -80 -40 0 -40 0 0 -160 0 -160 40 0 40 0 0 -40 0 -40 880 0 880 0 0
40 0 40 40 0 40 0 0 160 0 160 -40 0 -40 0 0 80 0 80 -40 0 -40 0 0 40 0 40
-120 0 -120 0 0 120 0 120 40 0 40 0 0 40 0 40 40 0 40 0 0 120 0 120 40 0 40
0 0 120 0 120 -40 0 -40 0 0 320 0 320 -40 0 -40 0 0 40 0 40 -40 0 -40 0 0
40 0 40 -40 0 -40 0 0 40 0 40 -40 0 -40 0 0 40 0 40 -400 0 -400 0 0 -40z
m720 -720 l0 -40 80 0 80 0 0 -40 0 -40 40 0 40 0 0 -200 0 -200 -40 0 -40 0
0 -40 0 -40 -120 0 -120 0 0 40 0 40 -80 0 -80 0 0 40 0 40 -80 0 -80 0 0 -40
0 -40 -80 0 -80 0 0 -40 0 -40 -120 0 -120 0 0 40 0 40 -40 0 -40 0 0 200 0
200 40 0 40 0 0 40 0 40 80 0 80 0 0 40 0 40 320 0 320 0 0 -40z"/>
<path d="M960 1360 l0 -80 40 0 40 0 0 80 0 80 -40 0 -40 0 0 -80z"/>
<path d="M1520 1360 l0 -80 80 0 80 0 0 80 0 80 -80 0 -80 0 0 -80z"/>
<path d="M0 1680 l0 -80 40 0 40 0 0 -80 0 -80 40 0 40 0 0 -120 0 -120 40 0
40 0 0 -120 0 -120 120 0 120 0 0 80 0 80 -40 0 -40 0 0 120 0 120 -40 0 -40
0 0 120 0 120 -40 0 -40 0 0 80 0 80 -120 0 -120 0 0 -80z"/>
</g>
</svg>
